<!DOCTYPE svg PUBLIC "-//W3C//DTD SVG 1.1//EN" "http://www.w3.org/Graphics/SVG/1.1/DTD/svg11.dtd">
<!-- Uploaded to: SVG Repo, www.svgrepo.com, Transformed by: SVG Repo Mixer Tools -->
<svg height="64px" width="64px" version="1.1" id="Layer_1" xmlns="http://www.w3.org/2000/svg" xmlns:xlink="http://www.w3.org/1999/xlink" viewBox="0 0 512 512" xml:space="preserve" fill="#000000">
<g id="SVGRepo_bgCarrier" stroke-width="0"/>
<g id="SVGRepo_tracerCarrier" stroke-linecap="round" stroke-linejoin="round"/>
<g id="SVGRepo_iconCarrier"> <g> <path style="fill:#B3404A;" d="M374.719,147.466c-7.938,0-14.373-6.435-14.373-14.373c0-57.538-46.81-104.348-104.348-104.348 c-12.846,0-25.382,2.302-37.26,6.844c-7.416,2.834-15.724-0.878-18.558-8.292c-2.836-7.415,0.877-15.722,8.292-18.558 C223.64,2.941,239.631,0,255.999,0c73.388,0,133.093,59.705,133.093,133.093C389.092,141.031,382.657,147.466,374.719,147.466z"/> <path style="fill:#B3404A;" d="M409.675,377.117c-7.569-2.409-15.646,1.778-18.052,9.342 c-18.41,57.897-71.635,96.797-132.445,96.797c-76.618,0-138.95-62.333-138.95-138.95s62.333-138.95,138.95-138.95 c61.022,0,115.792,40.8,133.19,99.217c2.265,7.607,10.268,11.939,17.877,9.671c7.607-2.267,11.938-10.271,9.671-17.877 c-10.097-33.901-31.268-64.388-59.613-85.845c-29.309-22.186-64.277-33.912-101.127-33.912c-40.886,0-78.395,14.716-107.527,39.118 v-82.635c0-20.822,6.11-40.919,17.668-58.119c4.428-6.588,2.676-15.518-3.912-19.945c-6.587-4.428-15.518-2.675-19.945,3.912 c-14.753,21.957-22.553,47.598-22.553,74.151v113.593c-19.767,27.515-31.423,61.23-31.423,97.619 C91.482,436.772,166.71,512,259.178,512c36.31,0,70.866-11.416,99.931-33.015c28.488-21.169,49.203-50.153,59.907-83.815 C421.423,387.605,417.239,379.523,409.675,377.117z"/> </g> <circle style="fill:#F4B2B0;" cx="256.006" cy="344.31" r="60.394"/> <path style="fill:#B3404A;" d="M345.059,329.932h-15.689c-1.946-9.952-5.861-19.208-11.34-27.331l11.109-11.109 c5.613-5.612,5.613-14.713,0-20.327c-5.612-5.614-14.713-5.613-20.327,0l-11.109,11.109c-8.123-5.479-17.378-9.394-27.331-11.34 v-15.689c0-7.938-6.435-14.373-14.373-14.373s-14.373,6.435-14.373,14.373v15.689c-9.952,1.946-19.208,5.861-27.331,11.34 l-11.109-11.109c-5.613-5.613-14.713-5.613-20.327,0c-5.614,5.612-5.613,14.713,0,20.327l11.109,11.109 c-5.479,8.123-9.394,17.378-11.34,27.331h-15.689c-7.938,0-14.373,6.435-14.373,14.373s6.435,14.373,14.373,14.373h15.689 c1.946,9.952,5.861,19.208,11.34,27.331l-11.109,11.109c-5.613,5.613-5.613,14.713,0,20.327c2.807,2.807,6.485,4.21,10.163,4.21 s7.357-1.403,10.163-4.21l11.109-11.109c8.123,5.479,17.378,9.394,27.331,11.34v15.689c0,7.938,6.435,14.373,14.373,14.373 c7.938,0,14.373-6.435,14.373-14.373v-15.689c9.952-1.946,19.208-5.861,27.331-11.34l11.109,11.109 c2.807,2.807,6.485,4.21,10.163,4.21c3.678,0,7.357-1.403,10.163-4.21c5.612-5.613,5.612-14.713,0-20.327l-11.109-11.109 c5.479-8.123,9.394-17.378,11.34-27.331h15.689c7.938,0,14.373-6.435,14.373-14.373S352.997,329.932,345.059,329.932z M255.999,390.33c-25.378,0-46.024-20.646-46.024-46.024s20.646-46.024,46.024-46.024s46.024,20.646,46.024,46.024 C302.023,369.684,281.378,390.33,255.999,390.33z"/> </g>
</svg>