<!DOCTYPE svg PUBLIC "-//W3C//DTD SVG 1.1//EN" "http://www.w3.org/Graphics/SVG/1.1/DTD/svg11.dtd">
<!-- Uploaded to: SVG Repo, www.svgrepo.com, Transformed by: SVG Repo Mixer Tools -->
<svg height="64px" width="64px" version="1.1" id="Layer_1" xmlns="http://www.w3.org/2000/svg" xmlns:xlink="http://www.w3.org/1999/xlink" viewBox="0 0 512 512" xml:space="preserve" fill="#000000">
<g id="SVGRepo_bgCarrier" stroke-width="0"/>
<g id="SVGRepo_tracerCarrier" stroke-linecap="round" stroke-linejoin="round"/>
<g id="SVGRepo_iconCarrier"> <path style="fill:#999999;" d="M205.607,186.134v-25.38c41.306-23.389,55.824-75.837,32.435-117.144s-75.837-55.824-117.144-32.435 S65.075,87.011,88.463,128.318c7.671,13.55,18.885,24.757,32.435,32.435v25.372C40.766,189.877,0.036,244.037,0.036,280.44v29.892 H326.39V280.44C326.39,244.037,285.668,189.877,205.607,186.134z"/> <path style="fill:#333333;" d="M370.68,302.221c-37.875,0-68.574,30.7-68.574,68.574s30.7,68.574,68.574,68.574 s68.574-30.7,68.574-68.574C439.254,332.921,408.554,302.221,370.68,302.221z M370.68,412.19c-22.861,0-41.394-18.533-41.394-41.394 c0-22.861,18.533-41.394,41.394-41.394s41.394,18.533,41.394,41.394l0,0C412.082,393.656,393.548,412.19,370.68,412.19 C370.688,412.198,370.688,412.198,370.68,412.19L370.68,412.19z"/> <path style="fill:#E21B1B;" d="M511.964,391.969v-42.346l-31.356-3.136c-2.848-12.838-7.935-25.076-15.038-36.147l19.997-24.421 l-29.956-29.956l-24.397,19.997c-11.078-7.095-23.317-12.19-36.155-15.046l-3.08-31.276h-42.57l-3.136,31.292 c-12.846,2.848-25.092,7.943-36.171,15.046l-24.389-19.997l-29.956,29.956l19.997,24.413c-7.087,11.07-12.166,23.309-15.006,36.139 l-31.348,3.136v42.394l31.348,3.136c2.84,12.838,7.919,25.076,15.006,36.147l-19.997,24.413l29.956,29.892l24.389-19.997 c11.078,7.111,23.325,12.206,36.179,15.046L349.419,512h42.562l3.136-31.292c12.846-2.848,25.092-7.951,36.171-15.054l24.397,19.997 l29.956-29.956l-19.997-24.429c7.079-11.062,12.15-23.293,14.982-36.123L511.964,391.969z M370.672,439.362 c-37.875,0-68.574-30.7-68.574-68.574s30.7-68.574,68.574-68.574s68.574,30.7,68.574,68.574l0,0 C439.246,408.654,408.546,439.354,370.672,439.362z"/> </g>
</svg>