<!DOCTYPE svg PUBLIC "-//W3C//DTD SVG 1.1//EN" "http://www.w3.org/Graphics/SVG/1.1/DTD/svg11.dtd">
<!-- Uploaded to: SVG Repo, www.svgrepo.com, Transformed by: SVG Repo Mixer Tools -->
<svg fill="#000000" height="64px" width="64px" version="1.1" id="Capa_1" xmlns="http://www.w3.org/2000/svg" xmlns:xlink="http://www.w3.org/1999/xlink" viewBox="0 0 467.811 467.811" xml:space="preserve">
<g id="SVGRepo_bgCarrier" stroke-width="0"/>
<g id="SVGRepo_tracerCarrier" stroke-linecap="round" stroke-linejoin="round"/>
<g id="SVGRepo_iconCarrier"> <g> <g> <path d="M233.906,304.539c39.3,0,71.2-31.9,71.2-71.2s-31.9-71.2-71.2-71.2s-71.2,31.9-71.2,71.2S194.606,304.539,233.906,304.539 z M233.906,186.139c26,0,47.2,21.2,47.2,47.2s-21.2,47.2-47.2,47.2s-47.2-21.2-47.2-47.2S207.906,186.139,233.906,186.139z"/> <path d="M141.306,338.039c0-3.1-1.3-6.3-3.5-8.5s-5.3-3.5-8.5-3.5s-6.3,1.3-8.5,3.5s-3.5,5.3-3.5,8.5s1.3,6.3,3.5,8.5 s5.3,3.5,8.5,3.5s6.3-1.3,8.5-3.5C140.006,344.239,141.306,341.139,141.306,338.039z"/> <path d="M210.606,99.139c0.6,0,1.3,0,1.9-0.1c6.6-1,11-7.2,10-13.7s-7.2-11-13.7-10c-6.6,1-11,7.2-10,13.7 C199.706,94.939,204.806,99.139,210.606,99.139z"/> <path d="M258.806,75.239c-6.5-1-12.7,3.5-13.7,10c-1,6.6,3.5,12.7,10,13.7c0.6,0.1,1.3,0.1,1.9,0.1c5.8,0,10.9-4.2,11.8-10.1 C269.806,82.439,265.306,76.239,258.806,75.239z"/> <path d="M392.006,258.139c1-6.5-3.5-12.7-10-13.7s-12.7,3.5-13.7,10c-1,6.6,3.5,12.7,10,13.7c0.6,0.1,1.3,0.1,1.9,0.1 C385.906,268.339,391.106,264.039,392.006,258.139z"/> <path d="M378.206,198.139c-6.5,1-11,7.2-10,13.7c0.9,5.9,6,10.1,11.8,10.1c0.6,0,1.3-0.1,1.9-0.1c6.5-1,11-7.2,10-13.7 C390.906,201.539,384.706,197.139,378.206,198.139z"/> <path d="M129.206,140.739c3.1,0,6.1-1.2,8.5-3.5c4.7-4.7,4.7-12.3,0-17s-12.3-4.7-17,0s-4.7,12.3,0,17 C123.106,139.539,126.106,140.739,129.206,140.739z"/> <path d="M365.706,177.939c1.8,0,3.7-0.4,5.5-1.3c5.9-3,8.2-10.3,5.2-16.2s-10.3-8.2-16.2-5.2c-5.9,3-8.2,10.3-5.2,16.1 C357.206,175.639,361.406,177.939,365.706,177.939z"/> <path d="M371.306,289.639c-5.9-3-13.1-0.7-16.1,5.3c-3,5.9-0.7,13.1,5.3,16.1c1.7,0.9,3.6,1.3,5.4,1.3c4.4,0,8.6-2.4,10.7-6.6 C379.606,299.939,377.206,292.639,371.306,289.639z"/> <path d="M338.406,140.539c3.1,0,6.2-1.2,8.5-3.5c4.7-4.7,4.7-12.3,0-17s-12.3-4.7-17,0s-4.7,12.3,0,17 C332.306,139.439,335.406,140.539,338.406,140.539z"/> <path d="M99.606,254.639L99.606,254.639c-1-6.5-7.2-11-13.7-10s-11,7.2-10,13.7c0.9,5.9,6,10.1,11.8,10.1c0.6,0,1.3-0.1,1.9-0.1 C96.106,267.339,100.606,261.239,99.606,254.639z"/> <path d="M161.206,90.839c-5.9,3-8.2,10.2-5.2,16.1c2.1,4.2,6.3,6.5,10.7,6.5c1.8,0,3.7-0.4,5.5-1.3c5.9-3,8.2-10.2,5.2-16.1 C174.306,90.139,167.106,87.739,161.206,90.839z"/> <path d="M91.306,160.739c-3,5.9-0.7,13.1,5.2,16.1c1.8,0.9,3.6,1.3,5.4,1.3c4.4,0,8.6-2.4,10.7-6.5c3-5.9,0.7-13.1-5.2-16.1 C101.506,152.439,94.306,154.839,91.306,160.739z"/> <path d="M85.806,222.039c0.6,0.1,1.3,0.1,1.9,0.1c5.8,0,10.9-4.2,11.8-10.1c1-6.6-3.4-12.7-10-13.7c-6.5-1-12.7,3.5-13.7,10 C74.806,214.939,79.306,221.039,85.806,222.039z"/> <path d="M306.406,90.639c-5.9-3-13.1-0.7-16.1,5.2c-3,5.9-0.7,13.1,5.3,16.1c1.7,0.9,3.6,1.3,5.4,1.3c4.4,0,8.6-2.4,10.7-6.6 C314.706,100.939,312.306,93.639,306.406,90.639z"/> <path d="M112.706,295.139c-3-5.9-10.2-8.2-16.1-5.2s-8.2,10.2-5.2,16.1c2.1,4.1,6.3,6.5,10.7,6.5c1.8,0,3.7-0.4,5.4-1.3 C113.406,308.239,115.706,301.039,112.706,295.139L112.706,295.139z"/> <path d="M338.506,325.939c-3.1,0-6.3,1.3-8.5,3.5s-3.5,5.3-3.5,8.5s1.3,6.3,3.5,8.5s5.3,3.5,8.5,3.5s6.3-1.3,8.5-3.5 s3.5-5.3,3.5-8.5s-1.3-6.3-3.5-8.5S341.706,325.939,338.506,325.939z"/> <path d="M76.906,378.339c-3.2,0-6.3,1.3-8.5,3.5s-3.5,5.3-3.5,8.5s1.3,6.3,3.5,8.5s5.3,3.5,8.5,3.5s6.3-1.3,8.5-3.5 s3.5-5.3,3.5-8.5c0-3.1-1.3-6.3-3.5-8.5S80.106,378.339,76.906,378.339z"/> <path d="M454.806,258.939c-6.5-1.1-12.7,3.3-13.8,9.8c-1.1,6.5,3.3,12.7,9.8,13.8c0.7,0.1,1.4,0.2,2,0.2c5.7,0,10.8-4.1,11.8-10 C465.706,266.239,461.306,260.039,454.806,258.939z"/> <path d="M87.906,78.039c2.8,0,5.6-1,7.9-3c5-4.4,5.5-11.9,1.1-16.9s-11.9-5.5-16.9-1.1s-5.5,11.9-1.1,16.9 C81.306,76.639,84.606,78.039,87.906,78.039z"/> <path d="M410.706,111.039c2.5,0,5.1-0.8,7.3-2.4c5.3-4,6.3-11.5,2.3-16.8s-11.5-6.3-16.8-2.3s-6.3,11.5-2.3,16.8 C403.506,109.339,407.106,111.039,410.706,111.039z"/> <path d="M130.906,50.339c5.8-3.3,7.8-10.6,4.6-16.4c-3.3-5.8-10.6-7.8-16.4-4.5c-5.8,3.3-7.8,10.6-4.5,16.3 c2.2,3.9,6.3,6.1,10.5,6.1C127.006,51.839,129.006,51.339,130.906,50.339z"/> <path d="M443.806,225.939c0.2,6.5,5.5,11.6,12,11.6c0.1,0,0.3,0,0.4,0c6.6-0.2,11.8-5.8,11.6-12.4c-0.2-6.6-5.8-11.8-12.4-11.6 C448.706,213.739,443.506,219.239,443.806,225.939z"/> <path d="M423.506,142.939c2.1,4.3,6.4,6.8,10.8,6.8c1.7,0,3.5-0.4,5.2-1.2c6-2.9,8.5-10,5.7-16c-2.9-6-10-8.5-16-5.7 C423.206,129.739,420.606,136.939,423.506,142.939z"/> <path d="M437.906,183.339c1.3,5.5,6.2,9.2,11.7,9.2c0.9,0,1.9-0.1,2.8-0.3c6.4-1.6,10.4-8.1,8.8-14.5s-8.1-10.4-14.5-8.8 C440.306,170.439,436.406,176.939,437.906,183.339z"/> <path d="M348.406,29.239c-5.8-3.3-13.1-1.2-16.3,4.6c-3.3,5.8-1.2,13.1,4.6,16.3c1.9,1,3.9,1.5,5.9,1.5c4.2,0,8.3-2.2,10.5-6.1 C356.306,39.839,354.206,32.439,348.406,29.239z"/> <path d="M15.306,192.439c1,0.2,1.9,0.3,2.8,0.3c5.4,0,10.3-3.7,11.7-9.2c1.6-6.4-2.4-12.9-8.8-14.5s-12.9,2.4-14.5,8.8 C4.906,184.439,8.906,190.939,15.306,192.439z"/> <path d="M26.906,269.039c-1.1-6.5-7.3-10.9-13.8-9.8s-10.9,7.3-9.8,13.9c1,5.8,6.1,10,11.8,10c0.7,0,1.4-0.1,2-0.2 C23.706,281.839,28.006,275.639,26.906,269.039z"/> <path d="M41.706,345.139c-5.5,3.6-7.1,11.1-3.4,16.6c2.3,3.5,6.1,5.4,10,5.4c2.3,0,4.5-0.6,6.6-2c5.5-3.6,7.1-11.1,3.4-16.6 C54.606,342.939,47.206,341.439,41.706,345.139z"/> <path d="M28.206,148.839c1.7,0.8,3.4,1.2,5.1,1.2c4.5,0,8.8-2.5,10.8-6.9c2.9-6,0.3-13.1-5.7-16c-6-2.8-13.1-0.3-16,5.7 C19.706,138.839,22.206,146.039,28.206,148.839z"/> <path d="M38.506,310.439c-2.4-6.2-9.4-9.2-15.6-6.8c-6.2,2.4-9.2,9.4-6.8,15.6c1.9,4.7,6.4,7.6,11.2,7.6c1.5,0,3-0.3,4.4-0.8 C37.906,323.539,40.906,316.539,38.506,310.439z"/> <path d="M11.606,237.839c0.1,0,0.3,0,0.4,0c6.4,0,11.8-5.1,12-11.6c0.2-6.6-5-12.2-11.6-12.4s-12.2,5-12.4,11.6 C-0.194,232.039,5.006,237.539,11.606,237.839z"/> <path d="M297.306,33.039c1.2,0.4,2.4,0.6,3.6,0.6c5.1,0,9.8-3.3,11.4-8.4c2-6.3-1.5-13.1-7.8-15.1s-13.1,1.5-15.1,7.8 C287.506,24.339,291.006,31.039,297.306,33.039z"/> <path d="M255.206,24.439c0.4,0,0.8,0.1,1.2,0.1c6.1,0,11.3-4.6,11.9-10.8c0.7-6.6-4.1-12.5-10.7-13.1c-6.6-0.7-12.5,4.1-13.1,10.7 C243.806,17.839,248.606,23.739,255.206,24.439z"/> <path d="M211.006,24.539c0.4,0,0.8,0,1.2-0.1c6.6-0.7,11.4-6.6,10.7-13.2s-6.6-11.4-13.2-10.7c-6.6,0.7-11.4,6.6-10.7,13.2 C199.706,19.939,204.906,24.539,211.006,24.539z"/> <path d="M166.606,33.739c1.2,0,2.4-0.2,3.6-0.6c6.3-2,9.8-8.8,7.8-15.1s-8.8-9.8-15.1-7.8s-9.8,8.8-7.8,15.1 C156.806,30.439,161.506,33.739,166.606,33.739z"/> <path d="M49.706,108.839c2.2,1.6,4.7,2.4,7.2,2.4c3.6,0,7.2-1.6,9.6-4.7c4-5.3,3-12.8-2.3-16.8s-12.8-3-16.8,2.3l0,0 C43.406,97.239,44.406,104.839,49.706,108.839z"/> <path d="M426.306,344.839c-5.5-3.6-13-2.1-16.6,3.5c-3.6,5.5-2.1,13,3.5,16.6c2,1.3,4.3,2,6.6,2c3.9,0,7.8-1.9,10-5.4 C433.406,355.939,431.806,348.439,426.306,344.839z"/> <path d="M371.806,74.939L371.806,74.939c2.3,2,5.1,3,7.9,3c3.3,0,6.7-1.4,9.1-4.1c4.3-5,3.8-12.6-1.2-16.9s-12.6-3.8-16.9,1.2 C366.206,62.939,366.806,70.539,371.806,74.939z"/> <path d="M445.006,303.339c-6.2-2.4-13.1,0.6-15.6,6.8c-2.4,6.2,0.6,13.1,6.8,15.6c1.4,0.6,2.9,0.8,4.4,0.8c4.8,0,9.3-2.9,11.2-7.6 C454.206,312.739,451.106,305.739,445.006,303.339z"/> <path d="M390.906,378.339c-3.2,0-6.3,1.3-8.5,3.5s-3.5,5.3-3.5,8.5s1.3,6.3,3.5,8.5s5.3,3.5,8.5,3.5s6.3-1.3,8.5-3.5 s3.5-5.3,3.5-8.5s-1.3-6.3-3.5-8.5C397.106,379.639,394.006,378.339,390.906,378.339z"/> <path d="M233.906,324.939c-27.6,0-53.3,14-72.4,39.5c-18.3,24.4-28.4,56.7-28.4,90.9c0,6.6,5.4,12,12,12h177.6c6.6,0,12-5.4,12-12 c0-34.2-10.1-66.5-28.4-90.9C287.206,338.939,261.506,324.939,233.906,324.939z M157.606,443.339c4.3-53,36.9-94.4,76.3-94.4 s72,41.4,76.3,94.4H157.606z"/> </g> </g> </g>
</svg>